<svg width="30" height="30" viewBox="0 0 30 30" fill="none" xmlns="http://www.w3.org/2000/svg">
<g clip-path="url(#clip0_293_11719)">
<path d="M15.2988 1.4531C14.9297 1.4531 14.5547 1.4783 14.1738 1.52224C12.1465 1.7572 10.377 2.5529 9.12891 3.69373C7.875 4.83513 7.125 6.36326 7.3125 7.98044C7.47656 9.42185 8.35547 10.6289 9.60351 11.4609C9.75586 11.0976 9.94922 10.7636 10.1426 10.4941C9.11133 9.81443 8.47852 8.89451 8.36133 7.8574C8.22656 6.7031 8.75391 5.53826 9.81445 4.56794C10.8809 3.59705 12.4688 2.86521 14.3027 2.6531C16.1367 2.4404 17.8535 2.78962 19.1133 3.49099C20.3672 4.19294 21.1465 5.20837 21.2812 6.3574C21.4102 7.48826 20.918 8.63083 19.9102 9.58005C19.287 9.19073 18.5705 8.9762 17.8359 8.95896H17.707C17.4082 8.96482 17.1152 8.99997 16.8105 9.06443C14.6133 9.57419 13.248 11.7304 13.752 13.9101C14.0625 15.2578 15.0176 16.289 16.2246 16.7519L18.5508 26.8418L21.3047 28.5469L23.0332 25.8105L21.6562 24.9609L22.5234 23.5898L21.1465 22.7344L22.0078 21.3691L20.6309 20.5136L21.498 19.1426L20.707 15.7207C21.5918 14.7773 21.9961 13.4297 21.6855 12.0761C21.5273 11.3906 21.2051 10.7871 20.7598 10.2949C21.8672 9.18162 22.5059 7.74607 22.3301 6.24021C22.1426 4.62595 21.0645 3.30818 19.582 2.48376C18.3809 1.81287 16.8984 1.44255 15.2988 1.4531ZM14.1152 9.39255C12.5977 9.45701 11.1914 10.3769 10.5762 11.8652C10.043 13.1484 10.2246 14.5429 10.9395 15.6269L6.9668 25.1777L8.21484 28.166L11.2148 26.9414L10.5879 25.4472L12.0879 24.8379L11.4668 23.3437L12.9668 22.7344L12.3398 21.2402L13.8398 20.625L15.1758 17.414C13.9746 16.7402 13.0547 15.5859 12.7207 14.1445C12.3164 12.3691 12.9023 10.5937 14.1152 9.39255ZM17.5137 9.81443C18.0352 9.80857 18.5273 10.0195 18.8848 10.3652C18.5625 10.5703 18.2051 10.7519 17.8301 10.916C17.7363 10.8808 17.6367 10.8691 17.5312 10.8691C17.4961 10.8691 17.4668 10.8691 17.4375 10.875C17.0273 10.9219 16.7227 11.2324 16.6699 11.6191C16.6582 11.6777 16.6582 11.7363 16.6582 11.789C16.6641 11.8066 16.6641 11.8301 16.6641 11.8476C16.7227 12.3398 17.1504 12.6797 17.6426 12.6211C18.041 12.5742 18.3457 12.2754 18.4043 11.9004C18.7676 11.7363 19.1074 11.5547 19.4297 11.3496C19.4414 11.4082 19.4531 11.4668 19.459 11.5254C19.582 12.5801 18.8145 13.5469 17.7598 13.6699C16.7109 13.7929 15.7383 13.0254 15.6211 11.9707C15.498 10.916 16.2656 9.94919 17.3203 9.82615C17.3848 9.82029 17.4492 9.81443 17.5137 9.81443Z" fill="#6B7280"/>
</g>
<defs>
<clipPath id="clip0_293_11719">
<rect width="30" height="30" fill="white"/>
</clipPath>
</defs>
</svg>
