<svg width="30" height="30" viewBox="0 0 30 30" fill="none" xmlns="http://www.w3.org/2000/svg">
<path d="M8.90625 15C11.2362 15 13.125 13.1112 13.125 10.7812C13.125 8.4513 11.2362 6.5625 8.90625 6.5625C6.5763 6.5625 4.6875 8.4513 4.6875 10.7812C4.6875 13.1112 6.5763 15 8.90625 15Z" fill="#6B7280"/>
<path d="M13.7109 17.3438C12.0609 16.5059 10.2398 16.1719 8.90625 16.1719C6.29414 16.1719 0.9375 17.7738 0.9375 20.9766V23.4375H9.72656V22.4959C9.72656 21.3826 10.1953 20.2664 11.0156 19.3359C11.6701 18.593 12.5865 17.9033 13.7109 17.3438Z" fill="#6B7280"/>
<path d="M19.9219 16.875C16.8709 16.875 10.7812 18.7594 10.7812 22.5V25.3125H29.0625V22.5C29.0625 18.7594 22.9729 16.875 19.9219 16.875Z" fill="#6B7280"/>
<path d="M19.9219 15C22.7696 15 25.0781 12.6915 25.0781 9.84375C25.0781 6.99603 22.7696 4.6875 19.9219 4.6875C17.0742 4.6875 14.7656 6.99603 14.7656 9.84375C14.7656 12.6915 17.0742 15 19.9219 15Z" fill="#6B7280"/>
</svg>
