<svg width="20" height="30" viewBox="0 0 20 30" fill="none" xmlns="http://www.w3.org/2000/svg">
<path d="M8.2475 0.0145475L19.4975 3.01464C19.6391 3.04861 19.7666 3.1404 19.8582 3.2744C19.9498 3.4084 19.9999 3.57634 20 3.74966V26.2503C19.9999 26.4237 19.9498 26.5916 19.8582 26.7256C19.7666 26.8596 19.6391 26.9514 19.4975 26.9854L8.2475 29.9855C8.15686 30.0072 8.06333 30.0045 7.97365 29.9777C7.88397 29.9508 7.80037 29.9004 7.72887 29.8301C7.65738 29.7598 7.59977 29.6714 7.56019 29.5711C7.52061 29.4709 7.50006 29.3614 7.5 29.2504V0.74957C7.50006 0.638648 7.52061 0.529122 7.56019 0.428882C7.59977 0.328643 7.65738 0.240186 7.72887 0.169883C7.80037 0.0995809 7.88397 0.0491839 7.97365 0.0223233C8.06333 -0.00453739 8.15686 -0.00719319 8.2475 0.0145475ZM6.25 2.99964V27.0004H0.9375C0.710953 27.0004 0.492073 26.9019 0.321337 26.7232C0.150601 26.5445 0.0395604 26.2977 0.00874996 26.0283L0 25.8753V4.12467C9.55362e-06 3.85281 0.0820536 3.59014 0.230959 3.38525C0.379865 3.18036 0.585558 3.04711 0.81 3.01014L0.9375 2.99964H6.25ZM11.25 13.5C10.9185 13.5 10.6005 13.658 10.3661 13.9393C10.1317 14.2206 10 14.6022 10 15C10 15.3978 10.1317 15.7794 10.3661 16.0607C10.6005 16.342 10.9185 16.5 11.25 16.5C11.5815 16.5 11.8995 16.342 12.1339 16.0607C12.3683 15.7794 12.5 15.3978 12.5 15C12.5 14.6022 12.3683 14.2206 12.1339 13.9393C11.8995 13.658 11.5815 13.5 11.25 13.5Z" fill="#6B7280"/>
</svg>
